<?xml version="1.0" encoding="UTF-8" standalone="no"?>
<svg
   xmlns:dc="http://purl.org/dc/elements/1.1/"
   xmlns:cc="http://creativecommons.org/ns#"
   xmlns:rdf="http://www.w3.org/1999/02/22-rdf-syntax-ns#"
   xmlns:svg="http://www.w3.org/2000/svg"
   xmlns="http://www.w3.org/2000/svg"
   id="svg3048"
   version="1.1"
   viewBox="0 0 216.99999 208.00001"
   height="208mm"
   width="217mm">
  <defs
     id="defs3042" />
  <metadata
     id="metadata3045">
    <rdf:RDF>
      <cc:Work
         rdf:about="">
        <dc:format>image/svg+xml</dc:format>
        <dc:type
           rdf:resource="http://purl.org/dc/dcmitype/StillImage" />
        <dc:title></dc:title>
      </cc:Work>
    </rdf:RDF>
  </metadata>
  <g
     transform="translate(0,-88.999958)"
     id="layer1">
    <path
       id="path1897-02"
       d="m 105.85707,284.6501 c -0.0974,-0.12987 -0.73375,-0.18344 -1.41719,-0.17046 -1.60062,0 -6.320196,-0.64285 -9.011716,-1.27108 -5.60138,-1.29706 -9.769994,-3.66261 -11.046113,-6.2702 l -0.649341,-1.33115 0.0071,-8.35524 c 0.0071,-9.30003 0.04867,-9.57129 1.800296,-11.31802 2.594118,-2.59461 8.238848,-4.67168 15.189394,-5.59147 3.7928,-0.49838 11.85827,-0.51137 15.62899,0 8.58089,1.1266 15.35482,4.20772 16.62963,7.55979 0.1461,0.36688 0.24513,4.51162 0.24188,9.5398 -0.004,8.48234 -0.0325,8.93315 -0.52596,9.74028 -2.02205,3.27073 -8.44891,6.05023 -16.10643,6.96224 -0.85064,0.12986 -1.77838,0.2224 -2.06182,0.27434 -1.11037,0.20941 -8.51627,0.40584 -8.67812,0.23539 z M 22.318826,247.112 c -2.401421,-0.5633 -5.169406,-2.58941 -6.606881,-4.82899 -0.959407,-1.49186 -1.517837,-3.60757 -2.491199,-9.41399 -0.665579,-3.97055 -0.701292,-4.49993 -0.41233,-6.17734 0.78408,-4.57721 4.434508,-8.14679 8.82601,-8.63169 1.561666,-0.17045 11.918655,0 37.09573,0.72077 10.946107,0.30194 11.27402,0.30194 13.790386,-0.22241 4.828007,-0.99674 9.620311,-3.95351 12.729846,-7.86125 0.733758,-0.91719 1.959873,-2.93144 2.724796,-4.46454 1.9378,-3.88533 7.74275,-15.79847 8.81757,-18.09552 l 0.8896,-1.90273 1.68633,3.44898 c 0.928556,1.89623 2.655156,5.44472 3.839396,7.88349 l 2.15273,4.43305 -3.62771,7.4236 c -1.995586,4.08321 -5.043266,10.32338 -6.772306,13.86814 -4.88758,10.01674 -5.08661,10.38767 -6.52068,12.1292 -1.561669,1.89608 -3.416022,3.36635 -5.609658,4.4488 -2.371557,1.16557 -3.674302,1.53408 -6.594387,1.83991 -1.477249,0.16234 -4.59896,0.51136 -6.93837,0.79869 -2.339091,0.27435 -6.340988,0.74674 -8.89257,1.0357 -2.55207,0.28896 -8.061894,0.93018 -12.243976,1.40583 -22.911039,2.63405 -23.599014,2.69038 -25.84184,2.1623 z m 160.910834,-0.48538 c -6.44066,-0.75973 -14.51181,-1.68521 -26.9368,-3.09914 -19.24777,-2.18845 -19.12602,-2.1675 -22.22986,-3.68096 -3.45531,-1.6839 -6.09408,-4.4462 -8.1197,-8.49939 -1.45939,-2.9196 -7.65232,-15.59133 -9.73297,-19.91432 -0.81979,-1.70095 -2.82123,-5.81956 -4.44977,-9.15068 -6.91955,-14.15645 -8.86968,-18.15055 -10.8854,-22.29676 -2.323346,-4.77769 -5.893416,-12.1016 -10.116896,-20.75035 -1.48862,-3.048 -3.548003,-7.28203 -4.577536,-9.40879 -1.029206,-2.12545 -3.347998,-6.88237 -5.152683,-10.56722 -1.804844,-3.68615 -4.125265,-8.44306 -5.156904,-10.56851 -1.030834,-2.12676 -3.236646,-6.65039 -4.900416,-10.05343 -5.715502,-11.68896 -7.618885,-15.66341 -7.539831,-15.74215 0.04867,0 2.976256,-0.37986 6.517279,-0.74674 3.540855,-0.36688 6.785775,-0.72077 7.211263,-0.7857 0.77109,-0.12987 0.780832,-0.12987 2.774304,4.06358 1.100641,2.3024 3.867317,8.01449 6.147962,12.69267 2.280972,4.67818 4.702372,9.66561 5.380932,11.08345 0.68018,1.41718 2.53682,5.2457 4.129,8.50588 5.994226,12.27872 8.103456,16.6082 9.920476,20.364 1.02921,2.12675 3.17463,6.53497 4.7686,9.79531 1.59413,3.26034 3.85497,7.90053 5.0246,10.31024 1.17044,2.40986 3.17317,6.52863 4.45172,9.15068 7.7494,15.89538 9.17893,18.82018 9.78898,20.02714 2.7748,5.48791 8.65686,9.91334 14.88988,11.2 2.50371,0.51136 2.87302,0.52435 12.8883,0.23539 18.84047,-0.52434 25.71326,-0.66882 32.60715,-0.66882 h 6.83107 l 1.50972,0.75973 c 0.83115,0.41882 2.01328,1.20615 2.62918,1.75062 1.95501,1.72189 3.45498,4.99928 3.46229,7.56629 0.004,1.3831 -1.6615,10.73361 -2.16442,12.15421 -0.88148,2.48454 -2.95921,4.66243 -5.77426,6.04748 -2.30274,1.1266 -4.97445,1.18017 -13.19478,0.20941 z m -64.52132,-74.18139 c -0.21752,-0.53734 -1.90727,-4.06098 -3.75725,-7.84275 l -3.36326,-6.87571 3.88647,-7.94518 c 2.13763,-4.37023 4.55659,-9.33802 5.3759,-11.03897 0.81979,-1.70078 2.90629,-5.99245 4.63775,-9.5372 1.73131,-3.54459 3.9355,-8.06822 4.89831,-10.05213 0.96265,-1.9852 3.27057,-6.72636 5.12899,-10.53702 1.85824,-3.81066 3.37884,-7.04357 3.37884,-7.18236 0,-0.1461 0.35876,-0.18344 0.83765,-0.12987 0.46103,0.12987 3.09947,0.37986 5.86421,0.66882 2.76457,0.28896 5.69342,0.58928 6.50867,0.68181 0.81654,0.12987 1.48212,0.19642 1.48212,0.23538 0,0.12987 -3.50304,7.35412 -7.60136,15.71845 -1.80597,3.68615 -4.12737,8.44175 -5.1582,10.56851 -1.03083,2.12676 -3.29281,6.76566 -5.02623,10.31024 -1.73357,3.54476 -4.05253,8.30021 -5.15333,10.56852 -1.10064,2.26831 -3.24703,6.67669 -4.76892,9.79548 -1.52271,3.11878 -3.62155,7.43918 -4.66568,9.60132 -1.04382,2.16215 -1.94624,3.93128 -2.00452,3.93128 -0.0487,0 -0.28571,-0.43182 -0.5,-0.96914 z"
       style="fill:#000015;fill-opacity:1;stroke:none;stroke-width:0;stroke-miterlimit:4;stroke-dasharray:none;stroke-opacity:1" />
  </g>
</svg>
